<svg width="64" height="64" viewBox="0 0 64 64" fill="none" xmlns="http://www.w3.org/2000/svg">
<rect width="64" height="64" rx="32" fill="white"/>
<path d="M42.4327 28.8H41.0577C40.8702 28.8 40.6827 28.8375 40.5077 28.8875L34.2702 22.65C34.8702 21.875 34.8202 20.7625 34.1077 20.0625L33.1327 19.0875C32.3952 18.35 31.0952 18.35 30.3452 19.0875L29.3702 20.0625C28.6702 20.7625 28.6202 21.875 29.2202 22.65L22.9827 28.8875C22.8077 28.8375 22.6202 28.8 22.4327 28.8H21.0577C19.9702 28.8 19.0827 29.6875 19.0827 30.775V32.15C19.0827 33.2375 19.9702 34.125 21.0577 34.125H22.4327C23.5202 34.125 24.4077 33.2375 24.4077 32.15V30.775C24.4077 30.5875 24.3702 30.4 24.3202 30.225L30.5577 23.9875C30.8952 24.25 31.3202 24.3875 31.7452 24.3875C32.1702 24.3875 32.5952 24.2375 32.9452 23.975L39.1827 30.2125C39.1327 30.3875 39.0952 30.575 39.0952 30.7625V32.1375C39.0952 33.225 39.9827 34.1125 41.0702 34.1125H42.4452C43.5327 34.1125 44.4202 33.225 44.4202 32.1375V30.7625C44.3952 29.675 43.5202 28.8 42.4327 28.8Z" fill="#1AAB7B"/>
<path d="M36.4327 37.6875L34.3827 39.5H29.0577L27.0077 37.6875C25.8202 36.7125 25.8202 35.9625 26.7202 34.8125L30.3327 30.2375C30.5827 29.925 30.8702 29.7125 31.1952 29.6C31.5327 29.4875 31.8952 29.4875 32.2452 29.6C32.5577 29.7125 32.8452 29.925 33.1077 30.2375L36.7202 34.8125C37.6202 35.95 37.5827 36.6625 36.4327 37.6875Z" fill="#1AAB7B"/>
<path d="M33.3577 44.5H30.1202C28.9702 44.5 28.1077 43.5625 28.3327 42.5625L28.7202 40.825C28.7952 40.475 29.1077 40.2375 29.4577 40.2375H34.0202C34.3702 40.2375 34.6702 40.475 34.7577 40.825L35.1452 42.5625C35.3952 43.625 34.5827 44.5 33.3577 44.5Z" fill="#1AAB7B"/>
</svg>
