<?xml version="1.0" encoding="utf-8"?>
<!-- Generator: Adobe Illustrator 27.5.0, SVG Export Plug-In . SVG Version: 6.00 Build 0)  -->
<svg version="1.1" id="Layer_1" xmlns="http://www.w3.org/2000/svg" xmlns:xlink="http://www.w3.org/1999/xlink" x="0px" y="0px"
	 viewBox="0 0 800 800" style="enable-background:new 0 0 800 800;" xml:space="preserve">
<rect x="6.74" style="fill:#F2F2F2;" width="800" height="800"/>
<g>
	<g>
		<g>
			<g>
				<g>
					<path style="fill:#F87000;" d="M291.636,458.012c-4.202,0-8.154-1.637-11.123-4.607c-2.974-2.967-4.609-6.916-4.609-11.12
						c0-4.197,1.635-8.146,4.601-11.111c2.972-2.972,6.924-4.609,11.125-4.609c4.2,0,8.149,1.632,11.116,4.602
						c6.132,6.134,6.132,16.114,0,22.246C299.779,456.38,295.833,458.012,291.636,458.012z"/>
				</g>
				<g>
					<path style="fill:#F87000;" d="M206.211,374.164c-4.202,0-8.153-1.637-11.125-4.609c-2.97-2.967-4.607-6.916-4.607-11.118
						c0-4.2,1.633-8.146,4.6-11.11c2.974-2.975,6.927-4.612,11.13-4.612c4.197,0,8.146,1.634,11.111,4.602
						c2.974,2.972,4.611,6.923,4.611,11.123c0,4.202-1.636,8.151-4.608,11.123C214.355,372.529,210.408,374.164,206.211,374.164z"/>
				</g>
				<path style="fill:#F87000;" d="M290.934,373.703c-4.205,0-8.153-1.637-11.123-4.607c-6.129-6.132-6.134-16.107-0.009-22.234
					c2.972-2.972,6.923-4.611,11.128-4.611c4.199,0,8.148,1.637,11.118,4.606c6.129,6.129,6.129,16.109,0,22.248
					C299.08,372.068,295.131,373.703,290.934,373.703z"/>
				<g>
					<path style="fill:#F87000;" d="M206.62,458.012c-4.202,0-8.153-1.637-11.128-4.607c-2.97-2.969-4.604-6.916-4.601-11.118
						c0-4.2,1.64-8.148,4.611-11.118c0.622-0.626,1.323-1.199,2.215-1.801c0.268-0.187,0.516-0.336,0.772-0.492
						c0.582-0.334,1.162-0.639,1.703-0.887c0.295-0.132,0.597-0.268,0.916-0.389c0.565-0.21,1.196-0.397,1.917-0.568
						c0.144-0.039,0.271-0.073,0.4-0.11c0.081-0.022,0.159-0.049,0.241-0.068l3.501-0.238c0.444,0.019,0.919,0.075,1.426,0.141
						l0.2,0.027c0.119,0.014,0.28,0.027,0.441,0.036l0.141,0.01l0.16,0.032h0.139c0.256,0.01,0.512,0.014,0.765,0.014
						c6.034,0,11.99-2.57,16.343-7.047c4.334-4.458,6.721-10.455,6.55-16.458l-0.005-0.178l-0.033-0.186
						c-0.033-0.168-0.042-0.338-0.054-0.507c-0.015-0.202-0.032-0.402-0.057-0.604l-0.039-0.353
						c-0.034-0.302-0.068-0.597-0.088-0.899l0.268-3.512c0.017-0.088,0.049-0.168,0.073-0.254l0.063-0.217
						c0.162-0.665,0.334-1.333,0.585-1.979c0.129-0.367,0.253-0.638,0.387-0.916c0.28-0.614,0.57-1.172,0.911-1.744
						c0.148-0.248,0.292-0.5,0.463-0.743c0.635-0.926,1.213-1.634,1.812-2.234c2.97-2.97,6.918-4.604,11.125-4.604
						c4.199,0,8.153,1.632,11.125,4.599c6.124,6.132,6.12,16.11-0.014,22.243c-0.62,0.622-1.323,1.192-2.217,1.803
						c-0.261,0.178-0.509,0.326-0.758,0.473c-0.565,0.338-1.135,0.638-1.702,0.899c-0.307,0.138-0.614,0.28-0.911,0.389
						c-0.602,0.224-1.24,0.414-1.91,0.565l-0.377,0.105c-0.086,0.024-0.169,0.051-0.254,0.073l-3.535,0.251
						c-0.414-0.017-0.848-0.073-1.308-0.132l-0.314-0.039c-0.105-0.017-0.27-0.029-0.436-0.039l-0.124-0.012l-0.18-0.035h-0.141
						c-0.258-0.009-0.512-0.012-0.767-0.012c-6.034,0-11.988,2.567-16.338,7.045c-4.336,4.46-6.724,10.463-6.553,16.465l0.005,0.178
						l0.033,0.178c0.033,0.171,0.04,0.339,0.054,0.509c0.014,0.203,0.032,0.402,0.056,0.602c0.007,0.119,0.031,0.336,0.058,0.548
						c0.026,0.241,0.058,0.475,0.058,0.716v0.086l-0.254,3.366c-0.016,0.071-0.129,0.459-0.161,0.58
						c-0.17,0.726-0.362,1.369-0.577,1.947c-0.117,0.322-0.236,0.599-0.375,0.889c-0.273,0.597-0.57,1.17-0.906,1.752
						c-0.148,0.238-0.323,0.518-0.501,0.787c-0.585,0.848-1.165,1.561-1.786,2.185c-2.963,2.967-6.911,4.604-11.111,4.604H206.62z"
						/>
				</g>
				<path style="fill:#F87000;" d="M249.086,458.012c-4.205,0-8.156-1.637-11.128-4.609c-2.969-2.969-4.604-6.916-4.606-11.118
					c-0.002-4.197,1.632-8.144,4.599-11.106c0.606-0.609,1.294-1.169,2.234-1.819c0.233-0.158,0.484-0.312,0.747-0.463
					c0.577-0.346,1.133-0.638,1.71-0.904c0.307-0.139,0.607-0.277,0.912-0.392c0.584-0.215,1.22-0.402,1.895-0.551
					c0,0,0.553-0.161,0.624-0.178l3.556-0.26c0.42,0.019,0.872,0.08,1.346,0.141l0.263,0.035c0.175,0.017,0.321,0.031,0.468,0.034
					c0.058,0.005,0.117,0.005,0.173,0.01l0.112,0.015l0.148,0.015c0.26,0.007,0.524,0.014,0.784,0.014
					c6.022-0.002,11.969-2.568,16.312-7.04c4.334-4.455,6.721-10.46,6.55-16.462l-0.022-0.733l-0.065-0.081
					c-0.003-0.024-0.003-0.053-0.005-0.08c-0.009-0.171-0.019-0.343-0.036-0.516l-0.058-0.504c-0.032-0.277-0.068-0.55-0.078-0.828
					l0.244-3.403c0.019-0.083,0.142-0.504,0.17-0.631c0.2-0.813,0.375-1.408,0.575-1.937c0.112-0.316,0.249-0.606,0.387-0.911
					c0.251-0.548,0.546-1.106,0.906-1.72l0.068-0.112c0.121-0.207,0.238-0.411,0.382-0.611c0.644-0.938,1.216-1.644,1.82-2.248
					c2.973-2.972,6.926-4.609,11.128-4.609c4.199,0,8.146,1.634,11.116,4.602c6.128,6.129,6.128,16.112,0,22.248
					c-0.595,0.592-1.304,1.165-2.227,1.802c-0.178,0.122-0.348,0.224-0.518,0.326l-0.275,0.171
					c-0.526,0.312-1.099,0.612-1.657,0.868c-0.315,0.141-0.611,0.277-0.924,0.394c-0.55,0.208-1.157,0.383-1.922,0.566
					c-0.153,0.036-0.277,0.075-0.4,0.112c-0.086,0.022-0.166,0.048-0.249,0.068l-3.495,0.241c-0.512-0.022-1.065-0.097-1.601-0.168
					c-0.183-0.022-0.324-0.029-0.463-0.037c-0.053-0.002-0.106-0.002-0.16-0.01l-0.298-0.031c-0.26-0.01-0.518-0.015-0.776-0.015
					c-6.027,0-11.973,2.568-16.322,7.04c-4.331,4.46-6.716,10.461-6.54,16.468l0.005,0.176l0.034,0.173
					c0.034,0.178,0.041,0.36,0.054,0.538c0.012,0.185,0.026,0.366,0.046,0.543c0.012,0.149,0.034,0.339,0.054,0.523
					c0.032,0.266,0.064,0.534,0.071,0.799l-0.258,3.451c-0.019,0.076-0.154,0.541-0.154,0.541c-0.168,0.731-0.355,1.371-0.577,1.973
					c-0.105,0.283-0.229,0.556-0.356,0.841l-0.044,0.1c-0.26,0.562-0.553,1.118-0.88,1.661c-0.16,0.268-0.319,0.531-0.487,0.78
					c-0.616,0.894-1.197,1.605-1.817,2.231C257.224,456.38,253.283,458.012,249.086,458.012L249.086,458.012z"/>
				<path style="fill:#F87000;" d="M206.626,415.554c-4.202,0-8.152-1.634-11.121-4.602c-2.971-2.974-4.608-6.923-4.611-11.125
					c-0.002-4.198,1.629-8.142,4.599-11.109c0.609-0.609,1.318-1.184,2.23-1.813c0.238-0.16,0.506-0.324,0.774-0.485
					c0.544-0.321,1.099-0.616,1.691-0.889c0.304-0.139,0.606-0.275,0.927-0.395c0.578-0.212,1.216-0.4,1.881-0.548l0.4-0.112
					c0.074-0.022,0.145-0.046,0.218-0.063l3.559-0.256c0.462,0.019,0.962,0.085,1.486,0.156l0.11,0.015
					c0.183,0.019,0.324,0.027,0.468,0.034c0.051,0.002,0.102,0.002,0.153,0.01l0.153,0.027l0.144,0.005
					c0.264,0.007,0.524,0.012,0.784,0.012c6.02,0,11.966-2.565,16.312-7.04c4.332-4.46,6.717-10.463,6.543-16.467l-0.005-0.173
					l-0.034-0.171c-0.037-0.19-0.041-0.383-0.054-0.578c-0.009-0.158-0.019-0.317-0.036-0.482l-0.054-0.485
					c-0.036-0.288-0.073-0.58-0.08-0.872l0.236-3.303l0.022-0.076v-0.066c0.019-0.076,0.148-0.514,0.148-0.514
					c0.2-0.845,0.378-1.456,0.578-1.995c0.112-0.297,0.251-0.594,0.392-0.901c0.256-0.565,0.556-1.137,0.902-1.72l0.054-0.09
					c0.136-0.227,0.271-0.453,0.424-0.68c0.624-0.904,1.196-1.61,1.795-2.207c2.973-2.972,6.923-4.609,11.128-4.609
					c4.202,0,8.151,1.635,11.123,4.604c6.129,6.132,6.124,16.112-0.007,22.241c-0.607,0.609-1.33,1.196-2.215,1.795
					c-0.241,0.171-0.449,0.292-0.663,0.419l-0.117,0.068c-0.577,0.344-1.145,0.643-1.681,0.889c-0.317,0.146-0.614,0.28-0.916,0.392
					c-0.59,0.22-1.216,0.405-1.923,0.568c-0.148,0.036-0.282,0.075-0.416,0.112c-0.081,0.022-0.163,0.048-0.246,0.068l-3.486,0.244
					c-0.441-0.022-0.913-0.081-1.409-0.144l-0.214-0.027c-0.161-0.02-0.31-0.027-0.453-0.037c-0.058-0.003-0.117-0.003-0.175-0.012
					l-0.117-0.015l-0.153-0.012c-0.26-0.01-0.519-0.015-0.78-0.015c-6.022,0-11.969,2.565-16.314,7.036
					c-4.334,4.46-6.721,10.465-6.55,16.472l0.005,0.175l0.031,0.173c0.037,0.175,0.044,0.358,0.057,0.536
					c0.012,0.185,0.027,0.365,0.046,0.55c0.015,0.146,0.036,0.333,0.059,0.519c0.029,0.263,0.063,0.521,0.068,0.782l-0.251,3.428
					c-0.019,0.087-0.048,0.178-0.075,0.271l-0.088,0.307c-0.175,0.767-0.36,1.406-0.57,1.973c-0.112,0.297-0.256,0.604-0.4,0.919
					c-0.258,0.565-0.55,1.123-0.892,1.693c-0.162,0.273-0.314,0.529-0.477,0.77c-0.645,0.935-1.201,1.622-1.808,2.224
					C214.764,413.922,210.82,415.554,206.626,415.554L206.626,415.554z"/>
			</g>
		</g>
	</g>
	<g>
		<path style="fill:#333333;" d="M335.543,386.938h-11.401v-8.019h32.451v8.019h-11.527v34.206h-9.522V386.938z"/>
		<path style="fill:#333333;" d="M386.784,403.288h-15.536v10.025h17.353v7.831h-26.876v-42.225h25.999v7.831h-16.476v8.77h15.536
			V403.288z"/>
		<path style="fill:#333333;" d="M426.06,420.015c-1.692,0.815-5.702,1.817-10.775,1.817c-14.598,0-22.115-9.146-22.115-21.174
			c0-14.41,10.274-22.365,23.054-22.365c4.95,0,8.708,0.94,10.4,1.879l-2.005,7.518c-1.879-0.815-4.573-1.566-8.019-1.566
			c-7.518,0-13.406,4.573-13.406,13.97c0,8.457,5.011,13.783,13.469,13.783c2.944,0,6.077-0.564,8.019-1.378L426.06,420.015z"/>
		<path style="fill:#333333;" d="M441.967,378.919v16.226h15.724v-16.226h9.522v42.225h-9.522v-17.667h-15.724v17.667h-9.522
			v-42.225H441.967z"/>
		<path style="fill:#333333;" d="M476.106,378.919h5.513v37.651h18.043v4.573h-23.555V378.919z"/>
		<path style="fill:#333333;" d="M539.376,399.593c0,14.472-8.834,22.24-19.609,22.24c-11.214,0-18.982-8.708-18.982-21.489
			c0-13.406,8.27-22.177,19.546-22.177C531.921,378.167,539.376,387.001,539.376,399.593z M506.549,400.219
			c0,9.084,4.887,17.166,13.531,17.166c8.646,0,13.532-7.957,13.532-17.542c0-8.457-4.385-17.228-13.469-17.228
			C511.06,382.615,506.549,391.01,506.549,400.219z"/>
		<path style="fill:#333333;" d="M578.65,419.264c-2.443,0.939-7.33,2.317-13.03,2.317c-6.391,0-11.652-1.628-15.788-5.576
			c-3.633-3.507-5.889-9.146-5.889-15.724c0-12.592,8.708-21.802,22.866-21.802c4.886,0,8.771,1.065,10.587,1.942l-1.378,4.448
			c-2.255-1.065-5.075-1.817-9.334-1.817c-10.274,0-16.978,6.39-16.978,16.977c0,10.714,6.39,17.04,16.289,17.04
			c3.57,0,6.013-0.501,7.267-1.127v-12.593h-8.52v-4.385h13.907V419.264z"/>
		<path style="fill:#333333;" d="M623,399.593c0,14.472-8.834,22.24-19.609,22.24c-11.214,0-18.982-8.708-18.982-21.489
			c0-13.406,8.27-22.177,19.546-22.177C615.544,378.167,623,387.001,623,399.593z M590.173,400.219
			c0,9.084,4.886,17.166,13.531,17.166c8.646,0,13.532-7.957,13.532-17.542c0-8.457-4.385-17.228-13.469-17.228
			S590.173,391.01,590.173,400.219z"/>
	</g>
</g>
</svg>
